#Comment line ignore any data following # character 
#Hierarchical Translation and Rotation (.htr) file 
[Header]	
#Header keywords are followed by a single value 
FileType HTR		#Single word string
DataType HTRS		#Translation followed by rotation and scale data
FileVersion 1		#integer
NumSegments 84		#integer
NumFrames 2		#integer
DataFrameRate 30		#integer, data frame rate in this file
EulerRotationOrder ZYX
CalibrationUnits mm
RotationUnits Degrees
GlobalAxisofGravity Y
BoneLengthAxis Y
ScaleFactor 1.00
[SegmentNames&Hierarchy]
#CHILD	PARENT
MASTER GLOBAL
root MASTER
chest root
L_mid_tent01 root
R_mid_tent01 root
spine01 root
Bip01_Neck chest
L_humerus chest
R_humerus chest
weapon_bone chest
Bip01_Head Bip01_Neck
eye_left_bone Bip01_Head
eye_right_bone Bip01_Head
L_forearm L_humerus
L_front_hand L_forearm
L_weapon_bone L_forearm
L_front_hand01_01 L_front_hand
L_front_hand02_01 L_front_hand
L_front_hand03_01 L_front_hand
L_front_hand01_02 L_front_hand01_01
L_front_hand02_02 L_front_hand02_01
L_front_hand03_02 L_front_hand03_01
R_forearm R_humerus
R_front_hand R_forearm
R_weapon_bone R_forearm
R_front_hand01_01 R_front_hand
R_front_hand02_01 R_front_hand
R_front_hand03_01 R_front_hand
R_front_hand01_02 R_front_hand01_01
R_front_hand02_02 R_front_hand02_01
R_front_hand03_02 R_front_hand03_01
null_rope01_connect L_mid_tent01
Rope1_Seg01 null_rope01_connect
Rope1_Seg02 Rope1_Seg01
Rope1_Seg03 Rope1_Seg02
Rope1_Seg04 Rope1_Seg03
Rope1_Seg05 Rope1_Seg04
Rope1_Seg06 Rope1_Seg05
Rope1_Seg07 Rope1_Seg06
Rope1_Seg09 Rope1_Seg07
L_mid_hand01 Rope1_Seg09
L_mid_hand02 Rope1_Seg09
L_mid_hand03 Rope1_Seg09
null_rope02_connect R_mid_tent01
Rope2_Seg01 null_rope02_connect
Rope2_Seg02 Rope2_Seg01
Rope2_Seg03 Rope2_Seg02
Rope2_Seg04 Rope2_Seg03
Rope2_Seg05 Rope2_Seg04
Rope2_Seg06 Rope2_Seg05
Rope2_Seg07 Rope2_Seg06
Rope2_Seg09 Rope2_Seg07
R_mid_hand01 Rope2_Seg09
R_mid_hand02 Rope2_Seg09
R_mid_hand03 Rope2_Seg09
spine02 spine01
spine03 spine02
pelvis spine03
null_rope03_connect pelvis
null_rope04_connect pelvis
Rope3_Seg01 null_rope03_connect
Rope3_Seg02 Rope3_Seg01
Rope3_Seg03 Rope3_Seg02
Rope3_Seg04 Rope3_Seg03
Rope3_Seg05 Rope3_Seg04
Rope3_Seg06 Rope3_Seg05
Rope3_Seg07 Rope3_Seg06
Rope3_Seg08 Rope3_Seg07
Rope3_Seg09 Rope3_Seg08
R_rear_hand01 Rope3_Seg09
R_rear_hand02 Rope3_Seg09
R_rear_hand03 Rope3_Seg09
Rope4_Seg01 null_rope04_connect
Rope4_Seg02 Rope4_Seg01
Rope4_Seg03 Rope4_Seg02
Rope4_Seg04 Rope4_Seg03
Rope4_Seg05 Rope4_Seg04
Rope4_Seg06 Rope4_Seg05
Rope4_Seg07 Rope4_Seg06
Rope4_Seg08 Rope4_Seg07
Rope4_Seg09 Rope4_Seg08
L_rear_hand01 Rope4_Seg09
L_rear_hand02 Rope4_Seg09
L_rear_hand03 Rope4_Seg09
[BasePosition]
#SegmentName Tx, Ty, Tz, Rx, Ry, Rz, BoneLength
MASTER 0.000000 0.000000 0.000000 -90.000000 0.000000 0.000000 10.000000 
root 0.000000 0.000000 0.000000 0.000000 0.000000 0.000000 10.000000 
chest 0.000000 0.000000 0.000000 0.000000 0.000000 0.000000 10.000000 
L_mid_tent01 0.000000 0.000000 0.000000 0.000000 0.000000 0.000000 10.000000 
R_mid_tent01 0.000000 0.000000 0.000000 0.000000 0.000000 0.000000 10.000000 
spine01 0.000000 0.000000 0.000000 0.000000 0.000000 0.000000 10.000000 
Bip01_Neck 0.000000 0.000000 0.000000 0.000000 0.000000 0.000000 10.000000 
L_humerus 0.000000 0.000000 0.000000 0.000000 0.000000 0.000000 10.000000 
R_humerus 0.000000 0.000000 0.000000 0.000000 0.000000 0.000000 10.000000 
weapon_bone 0.000000 0.000000 0.000000 0.000000 0.000000 0.000000 10.000000 
Bip01_Head 0.000000 0.000000 0.000000 0.000000 0.000000 0.000000 10.000000 
eye_left_bone 0.000000 0.000000 0.000000 0.000000 0.000000 0.000000 10.000000 
eye_right_bone 0.000000 0.000000 0.000000 0.000000 0.000000 0.000000 10.000000 
L_forearm 0.000000 0.000000 0.000000 0.000000 0.000000 0.000000 10.000000 
L_front_hand 0.000000 0.000000 0.000000 0.000000 0.000000 0.000000 10.000000 
L_weapon_bone 0.000000 0.000000 0.000000 0.000000 0.000000 0.000000 10.000000 
L_front_hand01_01 0.000000 0.000000 0.000000 0.000000 0.000000 0.000000 10.000000 
L_front_hand02_01 0.000000 0.000000 0.000000 0.000000 0.000000 0.000000 10.000000 
L_front_hand03_01 0.000000 0.000000 0.000000 0.000000 0.000000 0.000000 10.000000 
L_front_hand01_02 0.000000 0.000000 0.000000 0.000000 0.000000 0.000000 10.000000 
L_front_hand02_02 0.000000 0.000000 0.000000 0.000000 0.000000 0.000000 10.000000 
L_front_hand03_02 0.000000 0.000000 0.000000 0.000000 0.000000 0.000000 10.000000 
R_forearm 0.000000 0.000000 0.000000 0.000000 0.000000 0.000000 10.000000 
R_front_hand 0.000000 0.000000 0.000000 0.000000 0.000000 0.000000 10.000000 
R_weapon_bone 0.000000 0.000000 0.000000 0.000000 0.000000 0.000000 10.000000 
R_front_hand01_01 0.000000 0.000000 0.000000 0.000000 0.000000 0.000000 10.000000 
R_front_hand02_01 0.000000 0.000000 0.000000 0.000000 0.000000 0.000000 10.000000 
R_front_hand03_01 0.000000 0.000000 0.000000 0.000000 0.000000 0.000000 10.000000 
R_front_hand01_02 0.000000 0.000000 0.000000 0.000000 0.000000 0.000000 10.000000 
R_front_hand02_02 0.000000 0.000000 0.000000 0.000000 0.000000 0.000000 10.000000 
R_front_hand03_02 0.000000 0.000000 0.000000 0.000000 0.000000 0.000000 10.000000 
null_rope01_connect 0.000000 0.000000 0.000000 0.000000 0.000000 0.000000 10.000000 
Rope1_Seg01 0.000000 0.000000 0.000000 0.000000 0.000000 0.000000 10.000000 
Rope1_Seg02 0.000000 0.000000 0.000000 0.000000 0.000000 0.000000 10.000000 
Rope1_Seg03 0.000000 0.000000 0.000000 0.000000 0.000000 0.000000 10.000000 
Rope1_Seg04 0.000000 0.000000 0.000000 0.000000 0.000000 0.000000 10.000000 
Rope1_Seg05 0.000000 0.000000 0.000000 0.000000 0.000000 0.000000 10.000000 
Rope1_Seg06 0.000000 0.000000 0.000000 0.000000 0.000000 0.000000 10.000000 
Rope1_Seg07 0.000000 0.000000 0.000000 0.000000 0.000000 0.000000 10.000000 
Rope1_Seg09 0.000000 0.000000 0.000000 0.000000 0.000000 0.000000 10.000000 
L_mid_hand01 0.000000 0.000000 0.000000 0.000000 0.000000 0.000000 10.000000 
L_mid_hand02 0.000000 0.000000 0.000000 0.000000 0.000000 0.000000 10.000000 
L_mid_hand03 0.000000 0.000000 0.000000 0.000000 0.000000 0.000000 10.000000 
null_rope02_connect 0.000000 0.000000 0.000000 0.000000 0.000000 0.000000 10.000000 
Rope2_Seg01 0.000000 0.000000 0.000000 0.000000 0.000000 0.000000 10.000000 
Rope2_Seg02 0.000000 0.000000 0.000000 0.000000 0.000000 0.000000 10.000000 
Rope2_Seg03 0.000000 0.000000 0.000000 0.000000 0.000000 0.000000 10.000000 
Rope2_Seg04 0.000000 0.000000 0.000000 0.000000 0.000000 0.000000 10.000000 
Rope2_Seg05 0.000000 0.000000 0.000000 0.000000 0.000000 0.000000 10.000000 
Rope2_Seg06 0.000000 0.000000 0.000000 0.000000 0.000000 0.000000 10.000000 
Rope2_Seg07 0.000000 0.000000 0.000000 0.000000 0.000000 0.000000 10.000000 
Rope2_Seg09 0.000000 0.000000 0.000000 0.000000 0.000000 0.000000 10.000000 
R_mid_hand01 0.000000 0.000000 0.000000 0.000000 0.000000 0.000000 10.000000 
R_mid_hand02 0.000000 0.000000 0.000000 0.000000 0.000000 0.000000 10.000000 
R_mid_hand03 0.000000 0.000000 0.000000 0.000000 0.000000 0.000000 10.000000 
spine02 0.000000 0.000000 0.000000 0.000000 0.000000 0.000000 10.000000 
spine03 0.000000 0.000000 0.000000 0.000000 0.000000 0.000000 10.000000 
pelvis 0.000000 0.000000 0.000000 0.000000 0.000000 0.000000 10.000000 
null_rope03_connect 0.000000 0.000000 0.000000 0.000000 0.000000 0.000000 10.000000 
null_rope04_connect 0.000000 0.000000 0.000000 0.000000 0.000000 0.000000 10.000000 
Rope3_Seg01 0.000000 0.000000 0.000000 0.000000 0.000000 0.000000 10.000000 
Rope3_Seg02 0.000000 0.000000 0.000000 0.000000 0.000000 0.000000 10.000000 
Rope3_Seg03 0.000000 0.000000 0.000000 0.000000 0.000000 0.000000 10.000000 
Rope3_Seg04 0.000000 0.000000 0.000000 0.000000 0.000000 0.000000 10.000000 
Rope3_Seg05 0.000000 0.000000 0.000000 0.000000 0.000000 0.000000 10.000000 
Rope3_Seg06 0.000000 0.000000 0.000000 0.000000 0.000000 0.000000 10.000000 
Rope3_Seg07 0.000000 0.000000 0.000000 0.000000 0.000000 0.000000 10.000000 
Rope3_Seg08 0.000000 0.000000 0.000000 0.000000 0.000000 0.000000 10.000000 
Rope3_Seg09 0.000000 0.000000 0.000000 0.000000 0.000000 0.000000 10.000000 
R_rear_hand01 0.000000 0.000000 0.000000 0.000000 0.000000 0.000000 10.000000 
R_rear_hand02 0.000000 0.000000 0.000000 0.000000 0.000000 0.000000 10.000000 
R_rear_hand03 0.000000 0.000000 0.000000 0.000000 0.000000 0.000000 10.000000 
Rope4_Seg01 0.000000 0.000000 0.000000 0.000000 0.000000 0.000000 10.000000 
Rope4_Seg02 0.000000 0.000000 0.000000 0.000000 0.000000 0.000000 10.000000 
Rope4_Seg03 0.000000 0.000000 0.000000 0.000000 0.000000 0.000000 10.000000 
Rope4_Seg04 0.000000 0.000000 0.000000 0.000000 0.000000 0.000000 10.000000 
Rope4_Seg05 0.000000 0.000000 0.000000 0.000000 0.000000 0.000000 10.000000 
Rope4_Seg06 0.000000 0.000000 0.000000 0.000000 0.000000 0.000000 10.000000 
Rope4_Seg07 0.000000 0.000000 0.000000 0.000000 0.000000 0.000000 10.000000 
Rope4_Seg08 0.000000 0.000000 0.000000 0.000000 0.000000 0.000000 10.000000 
Rope4_Seg09 0.000000 0.000000 0.000000 0.000000 0.000000 0.000000 10.000000 
L_rear_hand01 0.000000 0.000000 0.000000 0.000000 0.000000 0.000000 10.000000 
L_rear_hand02 0.000000 0.000000 0.000000 0.000000 0.000000 0.000000 10.000000 
L_rear_hand03 0.000000 0.000000 0.000000 0.000000 0.000000 0.000000 10.000000 
#Beginning of Data. Separated by tabs
#Fr	Tx	Ty	Tz	Rx	Ry	Rz	SF
[MASTER]
68 -3888.854736 -146.519897 1150.593750 0.001660 0.001660 0.001660 4058.143066
69 -3971.683350 -329.765869 875.415222 0.001660 0.001660 0.001660 4080.363525
[root]
68 -16.502380 -62.822117 1485.251587 -69.936981 -30.290541 -112.538994 1486.671143
69 -16.502380 -62.822109 1468.768677 -78.452461 -34.378338 -110.266144 1470.204346
[chest]
68 -84.512650 -34.090519 0.000000 6.406869 1.806069 -176.347961 91.129311
69 -84.512650 -34.090519 0.000000 6.295067 2.597579 -175.706085 91.129311
[L_mid_tent01]
68 27.299595 22.177504 -249.918228 73.636742 46.788029 158.889832 252.381119
69 27.299597 22.177504 -249.918228 69.990555 48.489578 154.319260 252.381119
[R_mid_tent01]
68 23.228794 24.509907 226.238495 165.553818 -28.219534 75.203598 228.744751
69 23.228794 24.509907 226.238495 165.962616 -28.412354 74.339333 228.744751
[spine01]
68 -0.361383 -0.195265 0.000000 0.001845 0.001451 13.654368 0.410763
69 -0.361383 -0.195265 0.000000 0.001845 0.001451 13.654368 0.410763
[Bip01_Neck]
68 165.484543 71.581718 0.000119 176.643677 -1.657967 43.431911 180.302734
69 165.484543 71.581718 0.000119 176.643677 -1.657967 43.431911 180.302734
[L_humerus]
68 -13.983130 -135.272980 -120.471481 -169.822281 19.575039 -76.457047 181.680161
69 -13.983130 -135.272980 -120.471481 -170.680054 17.475851 -77.556602 181.680161
[R_humerus]
68 -13.983309 -135.273102 125.287651 168.683701 -6.706263 -73.011429 184.909012
69 -13.983309 -135.273102 125.287651 170.720627 -5.095750 -76.050117 184.909012
[weapon_bone]
68 235.964890 -300.705902 0.000000 0.000000 -89.951546 -128.212341 382.234833
69 235.964890 -300.705902 0.000000 0.000000 -89.951546 -128.212341 382.234833
[Bip01_Head]
68 213.442383 185.719757 11.719878 -7.917467 -7.636173 23.656939 283.172821
69 213.442413 185.719635 11.721299 -8.866569 -7.991029 20.563192 283.172791
[eye_left_bone]
68 -24.626970 125.451866 -64.772606 0.000000 -90.000000 -99.840431 143.318359
69 -24.626970 125.451866 -64.772606 0.000000 -90.000000 -99.840431 143.318359
[eye_right_bone]
68 -24.626970 125.451866 64.327362 0.000000 -89.965736 80.156380 143.117676
69 -24.626970 125.451866 64.327362 0.000000 -89.965736 80.156380 143.117676
[L_forearm]
68 322.776093 0.000000 -0.000119 0.000119 -0.002344 -95.807457 322.776093
69 322.776093 0.000000 -0.000119 0.000119 -0.002344 -95.807457 322.776093
[L_front_hand]
68 241.149185 -0.042021 -3.300071 149.893951 -1.837326 -27.423067 241.171753
69 241.149185 -0.042021 -3.300071 149.893951 -1.837326 -27.423067 241.171753
[L_weapon_bone]
68 156.183838 0.000000 0.000000 0.000014 0.000007 0.000001 156.183838
69 156.183838 0.000000 0.000000 0.000014 0.000007 0.000001 156.183838
[L_front_hand01_01]
68 86.095154 20.947098 -0.655860 -0.366594 -0.477154 75.385574 88.609184
69 86.095154 20.947098 -0.655860 -0.366594 -0.477154 75.385574 88.609184
[L_front_hand02_01]
68 86.935165 -11.437475 24.513514 154.399796 -59.883835 -61.369587 91.046425
69 86.935165 -11.437475 24.513514 154.399796 -59.883835 -61.369587 91.046425
[L_front_hand03_01]
68 86.637497 -14.123976 -20.424902 -153.913879 58.118130 -62.702892 90.126129
69 86.637497 -14.123976 -20.424902 -153.913849 58.118122 -62.702866 90.126129
[L_front_hand01_02]
68 71.020905 -0.000179 0.000030 0.000334 -0.002323 -106.379684 71.020905
69 71.020905 -0.000179 0.000030 0.000334 -0.002323 -106.379684 71.020905
[L_front_hand02_02]
68 71.020927 -0.000119 0.000060 0.000334 -0.002323 -106.379684 71.020927
69 71.020927 -0.000119 0.000060 0.000334 -0.002323 -106.379684 71.020927
[L_front_hand03_02]
68 71.020905 -0.000060 0.000060 0.000334 -0.002323 -106.379684 71.020905
69 71.020905 -0.000060 0.000060 0.000334 -0.002323 -106.379684 71.020905
[R_forearm]
68 322.776428 -0.000060 0.000030 0.134590 -0.165406 -39.432659 322.776428
69 322.776428 -0.000060 0.000030 0.129329 -0.167544 -39.017883 322.776428
[R_front_hand]
68 238.847015 -0.006795 2.210259 -8.879457 -10.642941 -26.315098 238.857239
69 238.847015 -0.006795 2.210259 -8.879457 -10.642941 -26.315098 238.857239
[R_weapon_bone]
68 155.664093 0.002503 -0.000030 0.003487 0.001180 -90.988930 155.664078
69 155.664093 0.002503 -0.000030 0.003487 0.001180 -90.988930 155.664078
[R_front_hand01_01]
68 87.624611 14.231146 22.918642 -154.633514 -59.950626 61.746063 91.683487
69 87.624611 14.231146 22.918642 -154.633514 -59.950634 61.746063 91.683487
[R_front_hand02_01]
68 89.356956 14.367283 -19.491137 154.602661 58.302849 63.744381 92.579636
69 89.356956 14.367283 -19.491137 154.602661 58.302849 63.744389 92.579636
[R_front_hand03_01]
68 87.286232 -22.307278 -0.143439 0.162155 -0.423168 -75.767921 90.091743
69 87.286232 -22.307278 -0.143439 0.162155 -0.423168 -75.767921 90.091743
[R_front_hand01_02]
68 71.020905 0.000060 0.000119 0.002323 -0.000334 106.381714 71.020905
69 71.020905 0.000060 0.000119 0.002323 -0.000334 106.381721 71.020905
[R_front_hand02_02]
68 71.020844 -0.000030 -0.000119 0.002323 -0.000334 106.381714 71.020836
69 71.020844 -0.000030 -0.000119 0.002323 -0.000334 106.381721 71.020836
[R_front_hand03_02]
68 71.020905 0.000000 0.000030 0.002323 -0.000334 106.381714 71.020905
69 71.020905 0.000000 0.000030 0.002323 -0.000334 106.381721 71.020905
[null_rope01_connect]
68 328.732483 0.000000 -0.000238 -132.410812 -15.083379 116.839073 328.732483
69 328.732483 0.000000 -0.000238 -130.257034 -9.390944 123.738686 328.732483
[Rope1_Seg01]
68 0.000000 0.000000 0.000000 138.147827 24.833071 -130.834290 0.000000
69 0.000000 0.000000 0.000000 124.570793 20.536446 -150.930527 0.000000
[Rope1_Seg02]
68 139.999863 -0.000179 0.000000 27.127373 -6.494277 -2.325808 139.999863
69 139.999863 -0.000179 0.000000 15.556637 -11.503418 -2.778807 139.999863
[Rope1_Seg03]
68 139.999924 0.000060 -0.000060 22.609861 -18.940731 2.552695 139.999924
69 139.999924 0.000060 -0.000060 20.471054 -50.433235 1.413061 139.999924
[Rope1_Seg04]
68 139.999924 -0.000060 -0.000119 -13.802919 -51.752655 45.638073 139.999924
69 139.999924 -0.000060 -0.000119 -16.423525 -46.751015 25.622648 139.999924
[Rope1_Seg05]
68 139.999832 0.000119 -0.000060 -5.348879 -21.795202 20.077147 139.999832
69 139.999832 0.000119 -0.000060 -3.748129 -10.010606 5.910583 139.999832
[Rope1_Seg06]
68 139.999954 0.000119 -0.000060 0.799948 -4.012514 6.494822 139.999954
69 139.999954 0.000119 -0.000060 -4.300260 -8.962095 5.821546 139.999954
[Rope1_Seg07]
68 139.999985 0.000060 0.000000 0.420481 -4.538557 6.061001 139.999985
69 139.999985 0.000060 0.000000 -7.239466 -7.968288 3.353269 139.999985
[Rope1_Seg09]
68 121.602913 0.000119 -0.000089 -89.793175 -1.359789 0.847147 121.602913
69 121.602913 0.000119 -0.000089 -89.793175 -1.359789 0.847147 121.602913
[L_mid_hand01]
68 103.859421 1.038730 8.195221 130.544373 -67.584534 -38.866947 104.187431
69 103.859421 1.038730 8.195221 130.544373 -67.584534 -38.866943 104.187431
[L_mid_hand02]
68 105.572853 -4.139662 -10.864139 -168.923172 43.409321 -73.498909 106.211075
69 105.572853 -4.139662 -10.864139 -168.923172 43.409309 -73.498886 106.211075
[L_mid_hand03]
68 104.641464 17.579376 -3.913581 -6.012629 17.808178 74.893669 106.179977
69 104.641464 17.579376 -3.913581 -6.012627 17.808174 74.893669 106.179977
[null_rope02_connect]
68 328.732849 0.000179 -0.000119 -138.961411 59.785748 -16.565962 328.732849
69 328.732849 0.000179 -0.000119 -129.157440 67.149162 -7.746589 328.732849
[Rope2_Seg01]
68 0.000220 0.000248 0.000000 -9.441372 -10.473035 -22.845442 0.000331
69 0.000222 0.000250 0.000000 -13.193741 -1.151950 -26.563799 0.000334
[Rope2_Seg02]
68 139.999741 -0.000060 -0.000119 -13.870006 1.978969 11.240738 139.999756
69 139.999741 -0.000060 -0.000119 -21.380733 3.285697 11.280285 139.999756
[Rope2_Seg03]
68 140.000107 0.000030 0.000000 -15.611069 -1.290991 18.710691 140.000107
69 140.000107 0.000030 0.000000 -22.087612 -1.895682 20.441330 140.000107
[Rope2_Seg04]
68 139.999802 0.000000 -0.000060 -11.611624 -10.123119 25.114748 139.999802
69 139.999802 0.000000 -0.000060 -13.707662 -14.196301 25.979683 139.999802
[Rope2_Seg05]
68 139.999985 -0.000060 0.000119 -3.441201 -8.227268 16.740864 139.999985
69 139.999985 -0.000060 0.000119 -3.846372 -10.827592 16.093010 139.999985
[Rope2_Seg06]
68 139.999893 -0.000030 -0.000119 -0.256692 -2.109728 12.362035 139.999893
69 139.999893 -0.000030 -0.000119 -0.590041 -5.149578 12.772936 139.999893
[Rope2_Seg07]
68 139.999893 0.000060 -0.000060 0.827944 -1.844103 10.673322 139.999893
69 139.999893 0.000060 -0.000060 0.774341 -4.566566 10.131048 139.999893
[Rope2_Seg09]
68 121.338966 0.000089 -0.000060 33.793236 -1.359788 -0.847141 121.338966
69 121.338966 0.000089 -0.000060 33.793236 -1.359788 -0.847141 121.338966
[R_mid_hand01]
68 104.680779 11.144459 -10.335981 -16.212063 45.237240 70.462845 105.778534
69 104.680779 11.144459 -10.335981 -16.212059 45.237240 70.462852 105.778534
[R_mid_hand02]
68 104.070427 2.443552 8.231699 49.067368 -67.749771 39.286453 104.424065
69 104.070427 2.443552 8.231699 49.067368 -67.749771 39.286453 104.424065
[R_mid_hand03]
68 106.028137 -11.221827 -5.996406 -177.101105 15.551026 -76.585571 106.788818
69 106.028137 -11.221827 -5.996406 -177.101105 15.551026 -76.585571 106.788818
[spine02]
68 129.756927 0.001550 0.000119 -1.023899 -3.926965 6.770993 129.756927
69 129.756927 0.001550 0.000119 -1.023899 -3.926965 6.770993 129.756927
[spine03]
68 78.613762 0.087376 -4.898753 1.040681 4.146420 4.212376 78.766296
69 78.613762 0.087377 -4.898751 1.040680 4.146419 4.212375 78.766296
[pelvis]
68 169.435242 0.051022 0.000000 0.019518 -0.190233 -10.721436 169.435257
69 169.435242 0.051022 0.000000 0.019518 -0.190233 -10.721436 169.435257
[null_rope03_connect]
68 -1.257226 -2.466202 137.391083 -34.837948 -69.178940 144.665009 137.418976
69 -1.257226 -2.466202 137.391083 -55.768944 -73.395065 167.965897 137.418976
[null_rope04_connect]
68 -1.259640 -2.480268 -137.844437 -34.837948 -69.178940 144.665009 137.872513
69 -1.259640 -2.480268 -137.844437 -55.768944 -73.395065 167.965897 137.872513
[Rope3_Seg01]
68 -0.000007 0.000067 -0.000153 -127.618301 -39.492363 -88.414566 0.000167
69 -0.000007 0.000069 -0.000153 -131.603806 -40.086811 -82.078835 0.000168
[Rope3_Seg02]
68 139.999924 -0.000119 0.000060 -8.724622 0.087522 -40.624931 139.999924
69 139.999924 -0.000119 0.000060 -7.896497 -5.788802 -41.098095 139.999924
[Rope3_Seg03]
68 139.999924 -0.000119 0.000119 -11.898070 -1.732840 -21.869703 139.999924
69 139.999924 -0.000119 0.000119 -15.175299 -3.476405 -21.879145 139.999924
[Rope3_Seg04]
68 139.999924 0.000119 0.000000 -30.639994 12.640114 -16.393547 139.999924
69 139.999924 0.000119 0.000000 -49.226658 11.569377 -19.902521 139.999924
[Rope3_Seg05]
68 139.999924 -0.000238 0.000060 -25.054283 24.752878 -5.881383 139.999924
69 139.999924 -0.000238 0.000060 -27.175203 24.548666 -2.138633 139.999924
[Rope3_Seg06]
68 139.999893 -0.000119 -0.000060 -5.316682 11.332327 1.877019 139.999893
69 139.999893 -0.000119 -0.000060 -4.404200 9.405525 3.488573 139.999893
[Rope3_Seg07]
68 139.999771 0.000060 -0.000119 -1.695393 5.707182 1.323650 139.999771
69 139.999771 0.000060 -0.000119 -1.390806 4.787457 2.102001 139.999771
[Rope3_Seg08]
68 139.999985 -0.000060 0.000000 -0.509168 3.195907 0.843407 139.999985
69 139.999985 -0.000060 0.000000 -0.379442 2.686817 1.259238 139.999985
[Rope3_Seg09]
68 90.185997 -0.000179 -0.000060 89.793228 -1.359877 -0.847183 90.185997
69 90.185997 -0.000179 -0.000060 89.793228 -1.359877 -0.847183 90.185997
[R_rear_hand01]
68 103.366196 -6.073594 -10.757982 -177.714203 24.565960 -73.910950 104.101845
69 103.366196 -6.073594 -10.757982 -177.714203 24.565960 -73.910950 104.101845
[R_rear_hand02]
68 100.509819 12.039542 -7.992327 -12.874827 36.868492 72.167221 101.543350
69 100.509819 12.039542 -7.992327 -12.874829 36.868488 72.167213 101.543350
[R_rear_hand03]
68 101.539970 5.215704 5.435467 71.484573 -71.816597 21.513800 101.819031
69 101.539970 5.215704 5.435467 71.484627 -71.816643 21.513817 101.819031
[Rope4_Seg01]
68 0.000000 0.000096 0.000000 35.656979 9.901401 -146.479645 0.000096
69 0.000000 0.000097 0.000000 40.301353 1.932445 -149.505753 0.000097
[Rope4_Seg02]
68 139.999985 0.000060 0.000119 3.444715 -10.046239 -0.981698 139.999985
69 139.999985 0.000060 0.000119 5.430659 -10.082364 0.108762 139.999985
[Rope4_Seg03]
68 139.999924 0.000000 -0.000238 7.113453 -12.483805 -0.752458 139.999924
69 139.999924 0.000000 -0.000238 11.772066 -12.604074 1.028054 139.999924
[Rope4_Seg04]
68 139.999985 0.000000 0.000119 13.792491 -12.338403 0.342511 139.999985
69 139.999985 0.000000 0.000119 26.986454 -13.360934 3.650371 139.999985
[Rope4_Seg05]
68 139.999802 -0.000060 -0.000119 96.512108 -39.372662 19.550791 139.999802
69 139.999802 -0.000060 -0.000119 70.435066 -26.525072 35.644794 139.999802
[Rope4_Seg06]
68 139.999924 0.000000 0.000060 12.459519 13.090953 18.464209 139.999924
69 139.999924 0.000000 0.000060 8.933570 13.376012 17.060917 139.999924
[Rope4_Seg07]
68 139.999802 0.000000 0.000000 1.983149 5.345811 5.176474 139.999802
69 139.999802 0.000000 0.000000 1.565717 5.318515 5.285140 139.999802
[Rope4_Seg08]
68 139.999924 0.000000 0.000119 -0.791751 2.695141 2.451861 139.999924
69 139.999924 0.000000 0.000119 -0.963627 2.674777 2.527182 139.999924
[Rope4_Seg09]
68 90.185791 0.000060 0.000060 -135.617828 2.228885 0.850567 90.185791
69 90.185791 0.000060 0.000060 -135.617828 2.228885 0.850567 90.185791
[L_rear_hand01]
68 101.696655 -8.392275 -7.654577 -12.874829 -36.868488 107.832764 102.329041
69 101.696655 -8.392275 -7.654577 -12.874829 -36.868488 107.832764 102.329041
[L_rear_hand02]
68 102.726799 -1.568258 5.773216 71.484581 71.816628 158.486160 102.900848
69 102.726799 -1.568258 5.773216 71.484581 71.816628 158.486160 102.900848
[L_rear_hand03]
68 104.552910 9.721220 -10.420293 -177.714203 -24.565960 -106.089035 105.519653
69 104.552910 9.721220 -10.420293 -177.714203 -24.565960 -106.089035 105.519653
